<svg width="20" height="18" viewBox="0 0 20 18" fill="none" xmlns="http://www.w3.org/2000/svg">
<path d="M9.70326 15.4564L9.70328 15.4564C9.89952 15.6536 10.0095 15.9208 10.0095 16.1991C10.0095 16.4774 9.89952 16.7446 9.70328 16.9418C9.507 17.139 9.24054 17.25 8.96244 17.25C8.68435 17.25 8.41788 17.139 8.2216 16.9418L1.05691 9.74291C1.0569 9.7429 1.05689 9.74288 1.05688 9.74287L1.05669 9.74268L1.23388 9.56633L9.70326 15.4564ZM9.70326 15.4564L3.27597 9L9.70326 2.54361L9.70328 2.54359C9.89952 2.34642 10.0095 2.07924 10.0095 1.80091C10.0095 1.52257 9.89952 1.2554 9.70328 1.05823C9.507 0.861011 9.24054 0.75 8.96244 0.75C8.68435 0.75 8.41788 0.861011 8.2216 1.05823L1.05691 8.25709C1.05684 8.25716 1.05676 8.25725 1.05669 8.25732C0.95942 8.35485 0.882327 8.47062 0.829722 8.598L1.06079 8.69343L9.70326 15.4564Z" fill="#70F149" stroke="#70F149" stroke-width="0.5"/>
<path d="M5 9H18" stroke="#70F149" stroke-width="3" stroke-linecap="round"/>
</svg>
