<svg width="151" height="151" viewBox="0 0 151 151" fill="none" xmlns="http://www.w3.org/2000/svg">
<path d="M90.5464 0.518806C104.274 0.512253 117.589 5.21223 128.27 13.8349C138.952 22.4575 146.354 34.4816 149.243 47.9017C152.132 61.3218 150.332 75.3267 144.145 87.5806C137.957 99.8345 127.756 109.597 115.241 115.239C111.241 124.083 105.156 131.824 97.5067 137.799C89.8578 143.774 80.8736 147.805 71.3248 149.546C61.776 151.287 51.9475 150.685 42.6821 147.793C33.4168 144.901 24.9912 139.805 18.1279 132.942C11.2646 126.078 6.1684 117.653 3.27644 108.387C0.384486 99.1221 -0.216964 89.2936 1.52368 79.7448C3.26432 70.1959 7.29511 61.2118 13.2703 53.5629C19.2456 45.9139 26.987 39.8284 35.8305 35.8283C40.5875 25.3029 48.2799 16.3732 57.985 10.1103C67.6901 3.84731 78.9959 0.51702 90.5464 0.518806ZM68.0419 53.0292H53.0389V60.5307C48.1638 60.5188 43.4757 62.4059 39.9682 65.7918C36.4608 69.1777 34.4097 73.7965 34.2497 78.669C34.0897 83.5415 35.8334 88.2848 39.1112 91.8935C42.389 95.5022 46.9433 97.6927 51.8087 98.0006L53.0389 98.0381H68.0419L68.7171 98.0981C69.5818 98.2547 70.3642 98.71 70.9276 99.3846C71.4909 100.059 71.7995 100.91 71.7995 101.789C71.7995 102.668 71.4909 103.519 70.9276 104.193C70.3642 104.868 69.5818 105.323 68.7171 105.48L68.0419 105.54H38.036V120.543H53.0389V128.044H68.0419V120.543C72.917 120.554 77.6052 118.667 81.1126 115.281C84.6201 111.896 86.6712 107.277 86.8312 102.404C86.9911 97.5318 85.2474 92.7885 81.9696 89.1798C78.6918 85.5711 74.1376 83.3806 69.2722 83.0727L68.0419 83.0352H53.0389L52.3638 82.9752C51.499 82.8186 50.7167 82.3633 50.1533 81.6888C49.5899 81.0142 49.2813 80.1633 49.2813 79.2844C49.2813 78.4056 49.5899 77.5546 50.1533 76.8801C50.7167 76.2056 51.499 75.7503 52.3638 75.5937L53.0389 75.5337H83.0449V60.5307H68.0419V53.0292ZM90.5464 15.5218C84.189 15.5133 77.9023 16.855 72.1023 19.4582C66.3023 22.0614 61.1213 25.8667 56.9022 30.6223C65.3809 30.1076 73.8722 31.3986 81.8147 34.4101C89.7572 37.4216 96.9699 42.0849 102.976 48.0916C108.982 54.0983 113.644 61.3116 116.655 69.2544C119.665 77.1973 120.956 85.6888 120.44 94.1674C127.26 88.1033 132.076 80.1092 134.249 71.2452C136.421 62.3811 135.848 53.0661 132.604 44.5354C129.361 36.0048 123.601 28.6617 116.088 23.48C108.576 18.2983 99.6653 15.5228 90.5389 15.5218H90.5464Z" fill="white"/>
</svg>
