<svg width="221" height="259" viewBox="0 0 221 259" fill="none" xmlns="http://www.w3.org/2000/svg">
<path fill-rule="evenodd" clip-rule="evenodd" d="M165.75 110.075H123.616L148.733 41.4012C149.093 40.4158 149.239 39.3411 149.158 38.2733C149.076 37.2055 148.77 36.1781 148.266 35.2834C147.762 34.3887 147.077 33.6545 146.271 33.1469C145.465 32.6393 144.565 32.374 143.65 32.375H88.3999C87.3179 32.3739 86.2594 32.7451 85.3558 33.4427C84.4522 34.1402 83.7433 35.1334 83.3169 36.2989L50.1669 126.949C49.8065 127.934 49.6605 129.009 49.742 130.077C49.8235 131.144 50.1299 132.172 50.6337 133.067C51.1376 133.961 51.8232 134.695 52.6289 135.203C53.4346 135.711 54.3352 135.976 55.2499 135.975H82.5876L50.1227 230.691C47.9127 237.127 54.7306 242.579 59.0401 237.814L114.555 176.392L169.341 121.471C170.2 120.611 170.812 119.463 171.097 118.182C171.382 116.901 171.325 115.548 170.933 114.307C170.542 113.065 169.835 111.994 168.909 111.237C167.982 110.48 166.879 110.075 165.75 110.075ZM115.24 123.025H150.788L107.163 166.77L69.7586 208.145L95.8918 131.909C96.2278 130.926 96.3531 129.862 96.2569 128.81C96.1607 127.758 95.8458 126.749 95.3398 125.872C94.8338 124.996 94.1522 124.278 93.3546 123.781C92.557 123.285 91.6677 123.025 90.7646 123.025H63.6258L92.0464 45.325H135.274L110.157 113.999C109.797 114.984 109.651 116.059 109.732 117.127C109.814 118.194 110.12 119.222 110.624 120.117C111.128 121.011 111.814 121.745 112.619 122.253C113.425 122.761 114.326 123.026 115.24 123.025Z" fill="white"/>
</svg>
