<svg width="188" height="150" viewBox="0 0 188 150" fill="none" xmlns="http://www.w3.org/2000/svg">
<path d="M18.75 150C13.5938 150 9.17814 148.162 5.50314 144.487C1.82814 140.812 -0.00623408 136.4 1.59168e-05 131.25V18.75C1.59168e-05 13.5938 1.83752 9.17814 5.51251 5.50314C9.18751 1.82814 13.6 -0.00623408 18.75 1.59168e-05H168.75C173.906 1.59168e-05 178.322 1.83751 181.997 5.51251C185.672 9.18751 187.506 13.6 187.5 18.75V131.25C187.5 136.406 185.662 140.822 181.987 144.497C178.312 148.172 173.9 150.006 168.75 150H18.75ZM93.75 84.375L18.75 37.5V131.25H168.75V37.5L93.75 84.375ZM93.75 65.625L168.75 18.75H18.75L93.75 65.625ZM18.75 37.5V18.75V131.25V37.5Z" fill="white"/>
</svg>
