<svg width="395" height="41" viewBox="0 0 395 41" fill="none" xmlns="http://www.w3.org/2000/svg">
<path d="M179.386 5.74866C179.587 5.69312 179.716 5.62646 179.85 5.62646C188.281 5.69312 196.717 5.732 205.148 5.88196C206.608 5.90973 208.101 6.29298 209.506 6.74843C212.291 7.65934 213.88 9.73109 214.205 12.5638C214.412 14.38 214.339 16.2685 214.104 18.0848C213.707 21.0896 211.76 22.9003 208.957 23.8834C208.527 24.0334 208.085 24.1667 207.52 24.3445C209.892 27.7715 212.224 31.1374 214.736 34.7643C212.017 34.7643 209.539 34.7921 207.066 34.7254C206.776 34.7199 206.451 34.2255 206.222 33.9034C204.448 31.4095 202.72 28.8934 200.924 26.4218C200.639 26.033 200.079 25.6108 199.637 25.6053C195.263 25.5442 190.888 25.5664 186.373 25.5664V34.6754H179.397V5.74866H179.386ZM186.34 19.7122C186.714 19.7399 186.983 19.7788 187.257 19.7788C192.191 19.7677 197.125 19.7622 202.054 19.7288C202.742 19.7288 203.447 19.6177 204.118 19.4622C206.44 18.929 207.424 17.5349 207.245 15.1188C207.089 12.997 205.992 11.7806 203.626 11.7084C197.953 11.5418 192.281 11.5529 186.608 11.5029C186.535 11.5029 186.463 11.6029 186.34 11.6918V19.7122Z" fill="white"/>
<path d="M309.783 35.5863C306.823 35.242 303.433 35.0198 300.105 34.431C295.288 33.5757 292.519 30.5541 291.859 25.7441C291.322 21.8339 291.305 17.9181 292.01 14.0079C292.787 9.70329 295.4 7.14831 299.59 6.12077C304.155 4.9988 308.804 4.87105 313.464 5.17098C315.914 5.33206 318.375 5.62643 320.775 6.13187C325.055 7.04278 327.701 9.67552 328.479 14.0412C329.189 18.0403 329.256 22.0616 328.546 26.044C327.623 31.2429 324.725 33.9089 319.254 34.6976C316.272 35.1253 313.245 35.2697 309.788 35.5863H309.783ZM310.801 11.2085C308.759 11.3085 307.125 11.3418 305.503 11.4807C304.63 11.5529 303.758 11.7528 302.913 11.9917C300.753 12.5971 299.277 13.9579 299.058 16.2129C298.835 18.5457 298.661 20.9285 298.863 23.2558C299.154 26.6439 300.395 28.0269 303.797 28.6823C308.116 29.5155 312.485 29.4433 316.831 28.6712C319.746 28.1547 321.368 26.3773 321.598 23.5224C321.771 21.3229 321.838 19.0678 321.575 16.885C321.173 13.5635 319.634 12.1583 316.238 11.6806C314.308 11.4085 312.345 11.3363 310.806 11.2085H310.801Z" fill="white"/>
<path d="M219.167 34.6754V5.70422H249.924V11.3418H226.199V17.1461H248.179V22.717H226.232V29.0878H250.601V34.6754H219.172H219.167Z" fill="white"/>
<path d="M98.3081 5.75971C98.5095 5.70416 98.6382 5.63196 98.7724 5.63196C107.063 5.69861 115.354 5.72638 123.639 5.8819C125.138 5.90967 126.682 6.32069 128.114 6.80947C130.565 7.64261 132.103 9.36445 132.674 11.9472C133.306 14.8077 133.272 17.6459 132.556 20.4564C131.7 23.8112 128.377 25.9218 123.398 26.0995C117.955 26.2939 112.501 26.2773 107.058 26.3495C106.504 26.355 105.955 26.3495 105.279 26.3495V34.6754H98.3081V5.75971ZM105.295 20.1676C111.113 20.1676 116.864 20.2175 122.61 20.1287C123.863 20.1065 125.149 19.5066 125.547 18.1402C126.419 15.1631 126.196 11.7361 121.547 11.6639C116.383 11.5806 111.22 11.5695 106.056 11.5362C105.799 11.5362 105.541 11.6473 105.295 11.7028V20.1676Z" fill="white"/>
<path d="M166.111 5.70422H172.997C173.036 6.04859 173.109 6.39851 173.115 6.74288C173.126 11.925 173.154 17.1016 173.126 22.2838C173.115 23.7612 173.025 25.2442 172.824 26.705C172.248 30.893 169.786 33.509 165.68 34.3922C159.051 35.8141 152.343 35.8141 145.703 34.581C140.019 33.5257 137.787 30.9096 137.49 24.7221C137.188 18.4902 137.418 12.2361 137.418 5.99305C137.418 5.91529 137.496 5.83753 137.574 5.68201H144.321C144.343 6.15412 144.388 6.59291 144.388 7.03726C144.388 11.8917 144.371 16.7517 144.388 21.6062C144.399 27.0661 145.462 28.5213 150.945 28.9656C154.614 29.26 158.374 28.9379 162.055 28.5602C164.516 28.3102 165.809 26.7883 165.881 24.3389C166.06 18.6568 166.043 12.9692 166.105 7.28164C166.105 6.78176 166.105 6.28187 166.105 5.69867L166.111 5.70422Z" fill="white"/>
<path d="M252.799 5.61531C255.261 5.61531 257.532 5.56532 259.798 5.65974C260.173 5.67641 260.676 6.24295 260.866 6.67063C263.898 13.5024 266.919 20.3398 269.856 27.216C270.315 28.288 270.835 28.7712 271.982 28.6045C272.39 28.5435 272.827 28.5435 273.235 28.6045C274.125 28.7323 274.533 28.3435 274.88 27.5437C277.867 20.6397 280.922 13.7635 283.903 6.85947C284.312 5.90969 284.804 5.53755 285.861 5.58754C287.763 5.67641 289.677 5.61531 291.786 5.61531C291.596 6.08742 291.472 6.45401 291.31 6.80393C287.087 15.7852 282.846 24.761 278.639 33.7534C278.309 34.4588 277.968 34.8198 277.106 34.8087C273.845 34.7532 270.583 34.7643 267.328 34.8087C266.578 34.8198 266.158 34.6143 265.834 33.9089C261.593 24.7332 257.325 15.5686 253.062 6.39847C252.99 6.23739 252.945 6.06521 252.799 5.62642V5.61531Z" fill="white"/>
<path d="M395 5.69312V11.8473H380.461V34.7088H373.462V11.9195H358.872V5.69312H395Z" fill="white"/>
<path d="M334.095 5.6875H340.959V28.5768H364.248V34.6587H334.095V5.6875Z" fill="white"/>
<path d="M68.3843 40.5352H29.6384C29.5937 40.463 29.5489 40.3853 29.5042 40.3131C42.4045 32.0149 55.2993 23.7168 68.3843 15.2965V40.5352Z" fill="#70F149"/>
<path d="M0.0671387 25.3554V0.0777588H39.2214C26.0469 8.58139 13.1521 16.9073 0.0671387 25.3554Z" fill="#70F149"/>
<path d="M68.4292 11.8806C67.7802 11.8806 67.3271 11.8806 66.874 11.8806C60.4517 11.8806 54.0295 11.8806 47.6073 11.8806C44.1053 11.8806 42.8242 10.592 42.8186 7.1095C42.8186 4.80446 42.8186 2.49943 42.8186 0.0721991C43.3389 0.0499819 43.7864 0.00554751 44.234 0.00554751C49.7723 0.00554751 55.3106 -0.00556109 60.8489 0.00554751C65.5257 0.0111018 68.3061 2.69938 68.4292 7.34278C68.4683 8.80356 68.4348 10.2699 68.4348 11.8806H68.4292Z" fill="#70F149"/>
<path d="M25.5491 40.5964C24.2289 40.5964 22.931 40.5964 21.6387 40.5964C16.8388 40.5964 12.039 40.6186 7.23907 40.5908C2.79722 40.5631 0.0392497 37.7915 8.98689e-05 33.3925C-0.0110987 31.9206 8.98689e-05 30.4542 8.98689e-05 28.8935C0.525951 28.8602 0.928738 28.8157 1.33712 28.8157C7.90479 28.8157 14.4781 28.8046 21.0457 28.8157C24.3128 28.8157 25.7113 30.221 25.7169 33.4591C25.7169 35.6808 25.7057 37.897 25.6946 40.1187C25.6946 40.202 25.6442 40.2909 25.5491 40.6019V40.5964Z" fill="#70F149"/>
</svg>
