<svg width="148" height="151" viewBox="0 0 148 151" fill="none" xmlns="http://www.w3.org/2000/svg">
<path d="M94.1388 96.8036H147.71V107.518H94.1388V96.8036ZM94.1388 118.232H147.71V128.946H94.1388V118.232ZM94.1388 139.661H147.71V150.375H94.1388V139.661ZM72.7103 96.8036C69.8786 96.8681 67.0632 96.3578 64.4343 95.3038C61.8053 94.2497 59.4173 92.6737 57.4145 90.6708C55.4116 88.668 53.8356 86.28 52.7815 83.651C51.7275 81.0221 51.2172 78.2067 51.2817 75.375C51.2172 72.5434 51.7275 69.728 52.7815 67.0991C53.8356 64.4701 55.4116 62.0821 57.4145 60.0793C59.4173 58.0764 61.8053 56.5004 64.4343 55.4463C67.0632 54.3922 69.8786 53.882 72.7103 53.9465C75.5419 53.882 78.3573 54.3922 80.9863 55.4463C83.6152 56.5004 86.0032 58.0764 88.006 60.0793C90.0089 62.0821 91.5849 64.4701 92.639 67.0991C93.693 69.728 94.2033 72.5434 94.1388 75.375H104.853C104.853 69.0178 102.968 62.8033 99.4361 57.5174C95.9042 52.2316 90.8841 48.1117 85.0108 45.6789C79.1375 43.2461 72.6746 42.6096 66.4395 43.8498C60.2044 45.09 54.4771 48.1514 49.9818 52.6466C45.4866 57.1419 42.4253 62.8692 41.185 69.1043C39.9448 75.3394 40.5813 81.8022 43.0141 87.6756C45.4469 93.5489 49.5668 98.569 54.8526 102.101C60.1385 105.633 66.353 107.518 72.7103 107.518V96.8036Z" fill="white"/>
<path d="M143.986 48.825L131.343 26.925C130.107 24.7768 128.163 23.1244 125.843 22.25C123.524 21.3756 120.973 21.3333 118.626 22.1304L105.586 26.5446C103.339 25.0317 100.991 23.675 98.5577 22.4839L95.8577 8.98393C95.3711 6.55605 94.0586 4.37164 92.1434 2.80216C90.2282 1.23268 87.8285 0.375009 85.3523 0.375H60.0666C57.5897 0.375257 55.1894 1.23369 53.2741 2.80423C51.3587 4.37478 50.0467 6.56042 49.5612 8.98929L46.8612 22.4786C44.4007 23.6583 42.0253 25.008 39.7523 26.5179L26.788 22.1304C24.4423 21.3361 21.8937 21.3798 19.5766 22.2541C17.2595 23.1284 15.3172 24.7791 14.0809 26.925L1.43802 48.825C0.199508 50.9694 -0.257943 53.4767 0.143469 55.9203C0.54488 58.3639 1.78037 60.593 3.63981 62.2286L13.9845 71.3196C13.8934 72.6696 13.7809 74.0089 13.7809 75.375C13.7809 76.7571 13.8344 78.1232 13.9309 79.4786L3.64516 88.5214C1.78399 90.1556 0.546448 92.384 0.143071 94.8277C-0.260305 97.2714 0.195401 99.7794 1.43266 101.925L14.0755 123.825C15.3123 125.973 17.2563 127.626 19.5758 128.5C21.8952 129.374 24.4462 129.417 26.7934 128.62L39.8327 124.205C42.079 125.721 44.4275 127.08 46.8612 128.271L49.5559 141.761C50.0415 144.19 51.3543 146.377 53.2708 147.947C55.1872 149.518 57.5888 150.376 60.0666 150.375H72.7095V139.661H60.0666L56.263 120.643C51.0014 118.688 46.117 115.839 41.8255 112.221L23.3594 118.468L10.7166 96.5679L25.3148 83.7375C24.3161 78.1975 24.3034 72.5247 25.2773 66.9804L10.7166 54.1768L23.3594 32.2821L41.7184 38.4964C46.0405 34.8736 50.9629 32.0344 56.263 30.1071L60.0666 11.0893H85.3523L89.1559 30.1071C94.4174 32.062 99.3017 34.911 103.593 38.5286L122.059 32.2821L134.702 54.1821L119.713 67.3179L126.774 75.375L141.774 62.2286C143.635 60.5944 144.872 58.366 145.276 55.9223C145.679 53.4786 145.224 50.9706 143.986 48.825Z" fill="white"/>
</svg>
