<svg width="188" height="150" viewBox="0 0 188 150" fill="none" xmlns="http://www.w3.org/2000/svg">
<path d="M28.125 18.75C28.125 8.4082 36.5332 0 46.875 0H78.0176C85.6934 0 92.5781 4.6582 95.4199 11.7773L109.482 46.875H140.625V36.9727C140.625 29.707 142.324 22.5293 145.576 15.9961L146.309 14.5312C148.623 9.90234 154.248 8.02734 158.877 10.3418C163.506 12.6562 165.381 18.2812 163.066 22.9102L162.334 24.375C160.371 28.2715 159.375 32.5781 159.375 36.9434V46.875H175.781C182.256 46.875 187.5 52.1191 187.5 58.5938V71.8945C187.5 76.7285 185.01 81.2402 180.879 83.8184L168.193 91.7578C164.033 90.0293 159.463 89.0625 154.688 89.0625C143.174 89.0625 132.979 94.5996 126.562 103.125H103.125C103.125 108.311 98.9355 112.5 93.75 112.5H91.3477C90.8496 113.906 90.2637 115.283 89.6484 116.631L91.3477 118.33C95.0098 121.992 95.0098 127.939 91.3477 131.602L84.7266 138.223C81.0645 141.885 75.1172 141.885 71.4551 138.223L69.7559 136.523C68.4082 137.168 67.0312 137.725 65.625 138.223V140.625C65.625 145.811 61.4355 150 56.25 150H46.875C41.6895 150 37.5 145.811 37.5 140.625V138.223C36.0938 137.725 34.7168 137.139 33.3691 136.523L31.6699 138.223C28.0078 141.885 22.0605 141.885 18.3984 138.223L11.7773 131.572C8.11523 127.91 8.11523 121.963 11.7773 118.301L13.4766 116.602C12.832 115.254 12.2754 113.877 11.7773 112.471H9.375C4.18945 112.471 0 108.281 0 103.096V93.75C0 88.5645 4.18945 84.375 9.375 84.375H11.7773C12.2754 82.9688 12.8613 81.5918 13.4766 80.2441L11.7773 78.5449C8.11523 74.8828 8.11523 68.9355 11.7773 65.2734L18.3984 58.6523C21.0352 56.0156 24.8145 55.2832 28.0957 56.4258V18.75H28.125ZM78.0176 18.75H46.875V46.875H89.2676L78.0176 18.75ZM51.5625 75C45.3465 75 39.3851 77.4693 34.9897 81.8647C30.5943 86.2601 28.125 92.2215 28.125 98.4375C28.125 104.654 30.5943 110.615 34.9897 115.01C39.3851 119.406 45.3465 121.875 51.5625 121.875C57.7785 121.875 63.7399 119.406 68.1353 115.01C72.5307 110.615 75 104.654 75 98.4375C75 92.2215 72.5307 86.2601 68.1353 81.8647C63.7399 77.4693 57.7785 75 51.5625 75ZM154.688 131.25C156.552 131.25 158.341 130.509 159.659 129.191C160.978 127.872 161.719 126.084 161.719 124.219C161.719 122.354 160.978 120.566 159.659 119.247C158.341 117.928 156.552 117.188 154.688 117.188C152.823 117.188 151.034 117.928 149.716 119.247C148.397 120.566 147.656 122.354 147.656 124.219C147.656 126.084 148.397 127.872 149.716 129.191C151.034 130.509 152.823 131.25 154.688 131.25ZM154.688 150C140.449 150 128.906 138.457 128.906 124.219C128.906 115.488 133.242 107.783 139.863 103.125C144.053 100.166 149.18 98.4375 154.688 98.4375C155.479 98.4375 156.24 98.4668 157.002 98.5254C170.156 99.6973 180.469 110.742 180.469 124.219C180.469 138.457 168.926 150 154.688 150Z" fill="white"/>
</svg>
