<svg width="150" height="150" viewBox="0 0 150 150" fill="none" xmlns="http://www.w3.org/2000/svg">
<path d="M96.33 135H33.75C23.4075 135 15 126.592 15 116.25C15 105.908 23.4075 97.5 33.75 97.5H86.25C100.725 97.5 112.5 85.725 112.5 71.25C112.5 56.775 100.725 45 86.25 45H49.7925C47.0381 50.3991 43.6273 55.4373 39.6375 60H86.25C92.4525 60 97.5 65.0475 97.5 71.25C97.5 77.4525 92.4525 82.5 86.25 82.5H33.75C15.1425 82.5 0 97.6425 0 116.25C0 134.857 15.1425 150 33.75 150H105.698C102.017 145.371 98.8746 140.338 96.33 135ZM22.5 0C10.095 0 0 10.095 0 22.5C0 46.41 22.5 60 22.5 60C22.5 60 45 46.4025 45 22.5C45 10.095 34.905 0 22.5 0ZM22.5 33.75C21.0221 33.7495 19.5588 33.4579 18.1937 32.8919C16.8285 32.3259 15.5882 31.4966 14.5435 30.4512C13.4988 29.4058 12.6703 28.165 12.1052 26.7994C11.5401 25.4339 11.2495 23.9704 11.25 22.4925C11.2505 21.0146 11.5421 19.5513 12.1081 18.1862C12.6741 16.821 13.5034 15.5807 14.5488 14.536C15.5942 13.4913 16.835 12.6628 18.2006 12.0977C19.5661 11.5326 21.0296 11.242 22.5075 11.2425C25.4922 11.2435 28.3542 12.4301 30.464 14.5413C32.5738 16.6525 33.7585 19.5153 33.7575 22.5C33.7565 25.4847 32.5699 28.3467 30.4587 30.4565C28.3475 32.5663 25.4847 33.751 22.5 33.75Z" fill="white"/>
<path d="M127.5 90C115.095 90 105 100.095 105 112.5C105 136.41 127.5 150 127.5 150C127.5 150 150 136.403 150 112.5C150 100.095 139.905 90 127.5 90ZM127.5 123.75C126.022 123.75 124.559 123.458 123.194 122.892C121.828 122.326 120.588 121.497 119.543 120.451C118.499 119.406 117.67 118.165 117.105 116.799C116.54 115.434 116.25 113.97 116.25 112.493C116.25 111.015 116.542 109.551 117.108 108.186C117.674 106.821 118.503 105.581 119.549 104.536C120.594 103.491 121.835 102.663 123.201 102.098C124.566 101.533 126.03 101.242 127.507 101.242C130.492 101.243 133.354 102.43 135.464 104.541C137.574 106.652 138.758 109.515 138.757 112.5C138.757 115.485 137.57 118.347 135.459 120.457C133.348 122.566 130.485 123.751 127.5 123.75Z" fill="white"/>
</svg>
