<svg width="150" height="150" viewBox="0 0 150 150" fill="none" xmlns="http://www.w3.org/2000/svg">
<path d="M62.4999 31.2489C34.8749 31.2489 12.4999 34.3739 12.4999 56.2489V118.749C12.4999 124.061 14.8124 129.124 18.7499 132.624V143.749C18.7499 147.186 21.5624 149.999 24.9999 149.999H31.2499C34.6874 149.999 37.4999 147.186 37.4999 143.749V137.499H87.4999V143.749C87.4999 147.186 90.3124 149.999 93.7499 149.999H99.9999C103.437 149.999 106.25 147.186 106.25 143.749V132.624C110.187 129.124 112.5 124.061 112.5 118.749V56.2489C112.5 34.3739 90.1249 31.2489 62.4999 31.2489ZM34.3749 124.999C29.1874 124.999 24.9999 120.811 24.9999 115.624C24.9999 110.436 29.1874 106.249 34.3749 106.249C39.5624 106.249 43.7499 110.436 43.7499 115.624C43.7499 120.811 39.5624 124.999 34.3749 124.999ZM90.6249 124.999C85.4374 124.999 81.2499 120.811 81.2499 115.624C81.2499 110.436 85.4374 106.249 90.6249 106.249C95.8124 106.249 99.9999 110.436 99.9999 115.624C99.9999 120.811 95.8124 124.999 90.6249 124.999ZM99.9999 87.4989H24.9999V56.2489H99.9999V87.4989ZM137.5 31.2489V93.7489C137.5 99.0614 135.187 104.124 131.25 107.624V118.749C131.25 122.186 128.437 124.999 125 124.999H124.25C124.687 122.999 125 120.936 125 118.749V56.2489C125 18.7489 81.2499 18.7489 62.4999 18.7489C56.8124 18.7489 48.7499 18.7489 40.3749 19.8114C47.1874 8.2489 65.6249 6.2489 87.4999 6.2489C115.125 6.2489 137.5 9.3739 137.5 31.2489Z" fill="white"/>
</svg>
